<svg width="25" height="25" viewBox="0 0 25 25" fill="none" xmlns="http://www.w3.org/2000/svg">
<path d="M21.7949 4.54175C20.154 2.55072 17.9502 1.11225 15.4079 0.430797C12.184 -0.432342 8.81488 0.0103498 5.92309 1.67966C3.03177 3.34897 0.963327 6.04454 0.0990078 9.26966C0.0583195 9.42129 0.0349015 9.57455 0 9.727H2.86586C3.57792 7.33635 5.14261 5.33735 7.31176 4.08508C9.56047 2.78631 12.1794 2.44181 14.6888 3.11398C16.9295 3.71428 18.8368 5.06567 20.1446 6.94926H14.8506V9.72693H24.5725V0.00484059H21.7948L21.7949 4.54175Z" fill="#191919"/>
<path d="M17.2607 20.915C15.012 22.2138 12.3931 22.5586 9.88366 21.8864C7.64298 21.2861 5.73566 19.9347 4.42784 18.0511H9.72186V15.2734H0V24.9953H2.77767V20.4589C4.41861 22.4499 6.62244 23.8884 9.1647 24.5696C12.3887 25.433 15.7575 24.9901 18.6495 23.3208C21.5409 21.6514 23.6093 18.9563 24.4734 15.731C24.5141 15.5794 24.5375 15.4261 24.5724 15.2736H21.7068C20.9946 17.6643 19.4299 19.6631 17.2609 20.9153L17.2607 20.915Z" fill="#191919"/>
</svg>
