<svg width="20" height="22" viewBox="0 0 20 22" fill="none" xmlns="http://www.w3.org/2000/svg">
<mask id="mask0_481_18426" style="mask-type:luminance" maskUnits="userSpaceOnUse" x="7" y="19" width="6" height="3">
<path d="M7.33789 19.9336H12.1621V22.0017H7.33789V19.9336Z" fill="white"/>
</mask>
<g mask="url(#mask0_481_18426)">
<path d="M9.73614 22.0007C10.8297 22.0007 11.7602 21.3084 12.1086 20.3427C12.1791 20.1443 12.0336 19.9414 11.8263 19.9414H7.64594C7.43868 19.9414 7.29317 20.1443 7.36372 20.3427C7.70768 21.3084 8.64253 22.0007 9.73614 22.0007Z" fill="white"/>
</g>
<mask id="mask1_481_18426" style="mask-type:luminance" maskUnits="userSpaceOnUse" x="0" y="0" width="20" height="20">
<path d="M0 0H19.4732V19.1337H0V0Z" fill="white"/>
</mask>
<g mask="url(#mask1_481_18426)">
<path d="M19.2347 17.0038L18.5997 15.9146C17.9206 14.746 17.559 13.4187 17.559 12.0693V9.49849C17.559 5.78993 14.9397 2.68992 11.4339 1.92263V1.6845C11.4339 0.754058 10.6755 0 9.73621 0C8.79694 0 8.03847 0.754058 8.03847 1.6845V1.92263C4.53277 2.68992 1.9134 5.78993 1.9134 9.49849V12.0693C1.9134 13.4187 1.55181 14.746 0.872716 15.9146L0.237719 17.0038C-0.375229 17.8946 0.268587 19.1028 1.35337 19.1028H18.119C19.2038 19.1028 19.8476 17.8946 19.2347 17.0038Z" fill="white"/>
</g>
<path d="M15.808 2.35938V6.29283H14.8202V4.18499C14.8202 3.88072 14.8158 3.69551 14.7982 3.63378C14.7849 3.57204 14.7453 3.52794 14.6791 3.49708C14.613 3.46621 14.463 3.44857 14.2381 3.44857H14.1367V2.98996C14.6174 2.88854 14.979 2.67687 15.2259 2.35938H15.808Z" fill="white"/>
</svg>
